<?xml version="1.0" encoding="UTF-8"?>
<svg width="31px" height="31px" viewBox="0 0 31 31" version="1.1" xmlns="http://www.w3.org/2000/svg" xmlns:xlink="http://www.w3.org/1999/xlink">
    <title>icon-photo</title>
    <g id="Page-1" stroke="none" stroke-width="1" fill="none" fill-rule="evenodd">
        <g id="world-svgrepo-com" fill="#FFC261" fill-rule="nonzero">
            <path d="M28.1409007,6.53957098 C27.9302591,6.24324995 27.7092678,5.95483012 27.4789686,5.67448515 C24.6339179,2.21219692 20.320558,0 15.5000781,0 C10.6795288,0 6.36616895,2.21219692 3.52103139,5.67448515 C3.29059331,5.95483012 3.06974089,6.24323258 2.85902984,6.53957098 C1.0593553,9.07118474 0,12.1642178 0,15.4999479 C0,18.8548319 1.07177152,21.964171 2.89040901,24.5036859 C3.10216199,24.7992602 3.32362219,25.0873849 3.55510219,25.3668268 C6.40039604,28.8055157 10.698648,31 15.5000781,31 C20.3014214,31 24.5997602,28.805533 27.4449673,25.3668268 C27.6763778,25.0873849 27.8979248,24.7992602 28.109591,24.5036859 C29.9281764,21.964171 31,18.8548319 31,15.4999479 C31,12.1642178 29.9407315,9.07118474 28.1409007,6.53957098 Z M26.5905751,6.30838709 C26.3438483,6.46708833 26.0849485,6.62176082 25.8127467,6.7714842 C25.0045116,7.21605257 24.1162744,7.60116224 23.1663034,7.92424315 C22.7956054,6.74637402 22.3358754,5.64967017 21.7928959,4.6624891 C21.1085451,3.41790259 20.3242221,2.40569816 19.4698994,1.6457417 C22.2920105,2.45569278 24.7622825,4.10629676 26.5905751,6.30838709 Z M23.4836203,11.0385139 C23.6400125,11.0385139 23.7880868,11.0736265 23.9217652,11.1350475 C24.2848919,11.3018236 24.5382696,11.6680919 24.5382696,12.0932286 C24.5382696,12.4225957 24.3863576,12.7169718 24.1490602,12.9104904 C23.9674187,13.0585815 23.7357824,13.1478042 23.4836203,13.1478042 C23.3367269,13.1478042 23.1969185,13.117606 23.0697521,13.0630617 C22.693393,12.9018251 22.4288147,12.5279334 22.4288147,12.0932112 C22.4288147,11.7541542 22.5903645,11.4527278 22.8396961,11.2596607 C23.0180555,11.1216068 23.2410786,11.0385139 23.4836203,11.0385139 Z M16.0446379,1.12586014 C17.8332507,1.36623026 19.5184529,2.78683118 20.8385662,5.18731977 C21.3468671,6.11144752 21.7778575,7.13985375 22.1265015,8.24600431 C20.259571,8.76873377 18.1941372,9.06430809 16.0446379,9.10704403 L16.0446379,1.12586014 L16.0446379,1.12586014 Z M16.0446379,10.1962982 C18.2939532,10.1531107 20.4610958,9.84272384 22.4259842,9.29234886 C22.4968868,9.56746689 22.5627883,9.84690887 22.6239838,10.1299455 C21.8687303,10.4618306 21.3397994,11.2168032 21.3397994,12.0932459 C21.3397994,13.1615749 22.1253033,14.0495308 23.1490943,14.2106284 C23.1613543,14.4688501 23.1700196,14.7287214 23.1748645,14.9896346 L17.5818874,14.9896346 C17.3953836,14.2282542 16.8010722,13.6254187 16.0446379,13.4265169 L16.0446379,10.1962982 L16.0446379,10.1962982 Z M22.4094003,21.7713991 C20.4489226,21.2237157 18.2875454,20.9151174 16.0446379,20.8720863 L16.0446379,17.5734137 C16.7783583,17.3806244 17.359229,16.8076919 17.5637927,16.0787498 L23.1734579,16.0787498 C23.1310865,18.0806012 22.8695818,20.0090843 22.4094003,21.7713991 Z M22.6324928,25.7238395 C22.6324233,26.3054546 22.1593046,26.7785715 21.5778435,26.7785715 C21.5652189,26.7785715 21.5531153,26.7770781 21.5406296,26.7766266 C21.1385698,26.7624391 20.7937462,26.5228852 20.628324,26.18006 C20.5615195,26.0418324 20.5230379,25.8874725 20.5230379,25.7238395 C20.5230379,25.203819 20.9015503,24.7717884 21.3971745,24.6857087 C21.4559735,24.6753937 21.5161271,24.6691249 21.5777567,24.6691249 C21.9175617,24.6691249 22.2194408,24.8312644 22.4125086,25.0815675 C22.5498685,25.2598394 22.6324928,25.4820628 22.6324928,25.7238395 Z M14.9555358,1.12586014 L14.9555358,9.10704403 C12.8058801,9.06430809 10.7404985,8.7687164 8.87342907,8.24614323 C8.95607073,7.98403179 9.04334893,7.72626167 9.13509003,7.47340592 C9.17918064,7.47609754 9.22341016,7.47788616 9.26809118,7.47788616 C10.4501326,7.47788616 11.4119121,6.51611049 11.4119121,5.33407369 C11.4119121,4.81648435 11.2275095,4.34128364 10.9211501,3.97046559 C12.1017329,2.30730652 13.4940339,1.32222665 14.9555358,1.12586014 Z M8.57412004,9.29234886 C10.5389216,9.84288013 12.7062031,10.1531107 14.9555358,10.1962982 L14.9555358,13.4265169 C14.1989278,13.6254187 13.6047727,14.2282368 13.41813,14.9896346 L7.82513549,14.9896346 C7.86250571,12.9873144 8.11892234,11.0574942 8.57412004,9.29234886 Z M8.21337243,5.33407369 C8.21337243,4.75245859 8.68649116,4.27934171 9.26810855,4.27934171 C9.31950996,4.27934171 9.36957424,4.28427345 9.41903073,4.29137585 C9.81654077,4.34875071 10.1424535,4.62760227 10.2673971,4.99918439 C10.3028051,5.10452214 10.3228273,5.21691019 10.3228273,5.33407369 C10.3228273,5.80232829 10.0158775,6.19990623 9.59268415,6.33709189 C9.49031546,6.37041585 9.38138267,6.38880567 9.26810855,6.38880567 C8.97505105,6.38880567 8.70981282,6.26849906 8.51851622,6.07499782 C8.33008489,5.88429238 8.21337243,5.62263244 8.21337243,5.33407369 Z M11.5302742,1.64575906 C11.0036529,2.11408312 10.5036352,2.67805511 10.0375495,3.33364628 C9.79844608,3.24136722 9.53918153,3.19026122 9.26809118,3.19026122 C8.08604975,3.19026122 7.12425294,4.15196743 7.12425294,5.33409106 C7.12425294,6.08619842 7.5139833,6.74864887 8.10157436,7.13136213 C8.00787098,7.39123345 7.91837001,7.65558501 7.83378343,7.92427788 C6.88381242,7.60119697 5.99555783,7.2160873 5.18725328,6.77151893 C4.91512101,6.62177818 4.65615167,6.46712306 4.4094249,6.30842182 C6.23766543,4.10629676 8.70800682,2.45569278 11.5302742,1.64575906 Z M3.74370716,7.17439328 C4.03450717,7.36447356 4.34025874,7.54858019 4.66243793,7.72581017 C5.53949187,8.20818274 6.50321623,8.62451517 7.53313727,8.97136915 C7.04687298,10.8396295 6.773994,12.8786946 6.73589444,14.9896346 L1.09851414,14.9896346 C1.20013612,12.0857615 2.16474612,9.3973914 3.74370716,7.17439328 Z M7.94424437,18.0859844 C8.22877549,18.2750228 8.4169116,18.5981037 8.4169116,18.9648236 C8.4169116,19.2337943 8.31485549,19.4788877 8.14837396,19.6653734 C7.9551498,19.8820747 7.67480373,20.0193993 7.36248806,20.0193993 L7.36233177,20.0193993 C7.27086852,20.0193993 7.18254839,20.0063927 7.09768397,19.9844256 C6.64399705,19.8665154 6.30761302,19.4546632 6.30761302,18.9648236 C6.30761302,18.5703019 6.52549596,18.2261569 6.84706736,18.0453323 C6.99950033,17.9595652 7.1750813,17.9099527 7.36233177,17.9099527 C7.5773668,17.9099527 7.77731134,17.9751072 7.94424437,18.0859844 Z M1.10061535,16.0787498 L6.73738786,16.0787498 C6.74291004,16.3556565 6.75263463,16.6315212 6.76623169,16.9058752 C5.87334056,17.1647046 5.21851089,17.989312 5.21851089,18.9648236 C5.21851089,20.1304154 6.15413813,21.0812857 7.3139172,21.1071426 C7.38608756,21.4399307 7.46470046,21.7682386 7.54972117,22.0913369 C6.51353124,22.4393717 5.5442847,22.857649 4.66259421,23.3425743 C4.3526576,23.512945 4.05796775,23.6898624 3.77718754,23.8721804 C2.19089832,21.6573787 1.2156781,18.9769272 1.10061535,16.0787498 Z M4.44681248,24.7356165 C4.68232124,24.5854416 4.92889173,24.4390003 5.18727064,24.2968655 C6.00125367,23.8491714 6.89622864,23.4618216 7.85352783,23.1373862 C8.22083953,24.2917949 8.67364081,25.3677298 9.20713884,26.3374241 C9.89169797,27.58208 10.6759515,28.5945102 11.5304479,29.3545361 C8.72728235,28.5499857 6.27128473,26.9156008 4.44681248,24.7356165 Z M14.9555358,29.8741572 C13.1667667,29.6337003 11.4815644,28.2131688 10.1614338,25.8127671 C9.6627533,24.9061261 9.23865693,23.8989229 8.89360759,22.8167017 C10.7552938,22.2972716 12.8136424,22.0039201 14.9555358,21.9611668 L14.9555358,29.8741572 Z M14.9555358,20.8720689 C12.7124893,20.9151174 10.5510253,21.2236983 8.59054765,21.7713817 C8.51209104,21.4705804 8.43946918,21.1648127 8.37266471,20.8548947 C9.04663098,20.4931065 9.50599636,19.781495 9.50599636,18.9648236 C9.50599636,17.9522197 8.80035571,17.1019465 7.85516017,16.8786812 C7.8415631,16.6135655 7.83230738,16.3466786 7.82647262,16.0787498 L13.4362073,16.0787498 C13.6409273,16.8077093 14.221798,17.3806418 14.9555358,17.5734137 L14.9555358,20.8720689 Z M14.9555358,16.4015355 C14.8210412,16.3199535 14.7058222,16.2098056 14.619308,16.0787498 C14.5096285,15.9124252 14.4453594,15.7138186 14.4453594,15.4999479 C14.4453594,15.3149383 14.493635,15.1410077 14.5777701,14.9896172 C14.6672711,14.8283807 14.7981884,14.6937304 14.9555358,14.598395 C15.1146891,14.5018614 15.300724,14.4452333 15.5000781,14.4452333 C15.6994323,14.4452333 15.8853282,14.5018614 16.0446379,14.598395 C16.2019853,14.6937304 16.3329026,14.8283807 16.4224035,14.9896172 C16.506556,15.1409903 16.5548143,15.3149383 16.5548143,15.4999479 C16.5548143,15.7138186 16.4904062,15.9124252 16.3807267,16.0787498 C16.2943341,16.2098056 16.1791325,16.3199535 16.0446379,16.4015355 C15.8853282,16.4980691 15.6994323,16.5546973 15.5000781,16.5546973 C15.300724,16.5546973 15.1146891,16.4980691 14.9555358,16.4015355 Z M16.0446379,29.8741572 L16.0446379,21.9611668 C18.1865139,22.0039201 20.2447931,22.2972543 22.1064792,22.8167017 C22.0221184,23.0810706 21.9335031,23.3415324 21.839817,23.5967671 C21.7538065,23.586018 21.6664762,23.580027 21.5776178,23.580027 C20.3956458,23.580027 19.4339532,24.5418027 19.4339532,25.7238395 C19.4339532,26.2751175 19.6432403,26.7784152 19.9864836,27.158732 C18.825871,28.7439558 17.4680228,29.6828614 16.0446379,29.8741572 Z M19.4695868,29.3545535 C19.9718446,28.907745 20.4495999,28.3733635 20.8973131,27.7563406 C21.1112368,27.8280591 21.3399557,27.8676693 21.5778435,27.8676693 C22.7597634,27.8676693 23.7215255,26.9058763 23.7215949,25.7238395 C23.7215255,25.0182016 23.3787163,24.3913326 22.8508967,24.0003882 C22.955054,23.7182546 23.0533071,23.4301473 23.1464201,23.1374036 C24.1038582,23.461839 24.9988332,23.8491714 25.8127467,24.2968829 C26.0711256,24.4390176 26.3177656,24.5854416 26.5532917,24.7357728 C24.7287326,26.9157571 22.2728218,28.5499857 19.4695868,29.3545535 Z M27.2228298,23.8721804 C26.9420496,23.6898624 26.6473424,23.5129276 26.3375621,23.3425743 C25.455889,22.857649 24.4865556,22.4393717 23.4502788,22.0913369 C23.9414749,20.2262197 24.2195808,18.1889431 24.2626816,16.0787498 L29.8994715,16.0787498 C29.9070254,15.8868809 29.9108979,15.6937965 29.9108979,15.4999479 C29.9108979,15.5001042 29.9108979,15.5001042 29.9108979,15.5001042 C29.9108979,15.6937965 29.907008,15.8867246 29.8994715,16.0787498 L29.8994715,16.0787498 C29.7843393,18.9769272 28.809119,21.6573787 27.2228298,23.8721804 Z M29.9015032,14.9896172 L29.9015032,14.9896172 L24.2641229,14.9896172 C24.2587397,14.6919244 24.2487372,14.3956033 24.2340288,14.1010709 C25.047022,13.7960673 25.6273717,13.0113827 25.6273717,12.0932286 C25.6273717,10.98456 24.7813323,10.0697053 23.7010344,9.96032147 C23.6294544,9.62588367 23.5514667,9.29608239 23.4669496,8.97135178 C24.496888,8.62451517 25.4605255,8.20818274 26.33751,7.72579281 C26.659776,7.54856283 26.9655102,7.36431728 27.256397,7.17437591 C28.8352712,9.3973914 29.7999681,12.0856226 29.9015032,14.9896172 L30.25784,14.9896172 L30.25784,14.9896172 L29.9015032,14.9896172 Z" id="Shape"></path>
        </g>
    </g>
</svg>