<?xml version="1.0" encoding="UTF-8"?>
<svg width="800px" height="800px" viewBox="0 0 800 800" version="1.1" xmlns="http://www.w3.org/2000/svg" xmlns:xlink="http://www.w3.org/1999/xlink">
    <title>management-svgrepo-com</title>
    <g id="Page-1" stroke="none" stroke-width="1" fill="none" fill-rule="evenodd">
        <g id="management-svgrepo-com" fill="#FFC261" fill-rule="nonzero">
            <path d="M761.290323,206.451613 L761.290323,0 L606.451613,0 L606.451613,206.451613 L601.858065,206.451613 L539.509677,69.2645161 L455.406452,1.98709677 L438.245161,104.929032 L483.367742,206.451613 L438.709677,206.451613 L438.709677,283.870968 L464.516129,283.870968 L464.516129,322.580645 L64.516129,322.580645 C28.9419355,322.580645 0,351.522581 0,387.096774 L0,658.064516 C0,693.63871 28.9419355,722.580645 64.516129,722.580645 L206.451613,722.580645 L206.451613,774.193548 L154.83871,774.193548 L154.83871,800 L438.709677,800 L438.709677,774.193548 L387.096774,774.193548 L387.096774,722.580645 L529.032258,722.580645 C564.606452,722.580645 593.548387,693.63871 593.548387,658.064516 L593.548387,593.548387 L735.483871,593.548387 C756.825806,593.548387 774.193548,576.180645 774.193548,554.83871 L774.193548,283.870968 L800,283.870968 L800,206.451613 L761.290323,206.451613 Z M632.258065,25.8064516 L735.483871,25.8064516 L735.483871,51.6129032 L709.677419,51.6129032 L709.677419,77.4193548 L735.483871,77.4193548 L735.483871,103.225806 L683.870968,103.225806 L683.870968,129.032258 L735.483871,129.032258 L735.483871,154.83871 L709.677419,154.83871 L709.677419,180.645161 L735.483871,180.645161 L735.483871,206.451613 L632.258065,206.451613 L632.258065,25.8064516 Z M473.625806,49.6129032 L513.832258,81.7935484 L465.587097,97.8709677 L473.625806,49.6129032 Z M474.167742,122.206452 L527.174194,104.541935 L573.509677,206.451613 L511.612903,206.451613 L474.167742,122.206452 Z M361.290323,774.193548 L232.258065,774.193548 L232.258065,722.580645 L361.290323,722.580645 L361.290323,774.193548 Z M529.032258,696.774194 L64.516129,696.774194 C43.1741935,696.774194 25.8064516,679.406452 25.8064516,658.064516 L567.741935,658.064516 C567.741935,679.406452 550.374194,696.774194 529.032258,696.774194 Z M567.741935,632.258065 L25.8064516,632.258065 L25.8064516,387.096774 C25.8064516,365.754839 43.1741935,348.387097 64.516129,348.387097 L464.516129,348.387097 L464.516129,554.83871 C464.516129,576.180645 481.883871,593.548387 503.225806,593.548387 L567.741935,593.548387 L567.741935,632.258065 Z M748.387097,503.225806 L722.580645,503.225806 L722.580645,529.032258 L748.387097,529.032258 L748.387097,554.83871 C748.387097,561.96129 742.606452,567.741935 735.483871,567.741935 L503.225806,567.741935 C496.103226,567.741935 490.322581,561.96129 490.322581,554.83871 L490.322581,529.032258 L696.774194,529.032258 L696.774194,503.225806 L490.322581,503.225806 L490.322581,283.870968 L748.387097,283.870968 L748.387097,503.225806 Z M774.193548,258.064516 L464.516129,258.064516 L464.516129,232.258065 L774.193548,232.258065 L774.193548,258.064516 Z" id="Shape"></path>
            <path d="M232.258065,283.870968 C310.516129,283.870968 374.193548,220.193548 374.193548,141.935484 C374.193548,63.6774194 310.516129,0 232.258065,0 C154,0 90.3225806,63.6774194 90.3225806,141.935484 C90.3225806,220.193548 154,283.870968 232.258065,283.870968 Z M232.258065,25.8064516 C296.296774,25.8064516 348.387097,77.8967742 348.387097,141.935484 C348.387097,205.974194 296.296774,258.064516 232.258065,258.064516 C168.219355,258.064516 116.129032,205.974194 116.129032,141.935484 C116.129032,77.8967742 168.219355,25.8064516 232.258065,25.8064516 Z" id="Shape"></path>
            <path d="M245.16129,180.645161 L219.354839,180.645161 C212.232258,180.645161 206.451613,174.864516 206.451613,167.741935 L180.645161,167.741935 C180.645161,189.083871 198.012903,206.451613 219.354839,206.451613 L219.354839,232.258065 L245.16129,232.258065 L245.16129,206.451613 C266.503226,206.451613 283.870968,189.083871 283.870968,167.741935 C283.870968,146.4 266.503226,129.032258 245.16129,129.032258 L219.354839,129.032258 C212.232258,129.032258 206.451613,123.251613 206.451613,116.129032 C206.451613,109.006452 212.232258,103.225806 219.354839,103.225806 L245.16129,103.225806 C252.283871,103.225806 258.064516,109.006452 258.064516,116.129032 L283.870968,116.129032 C283.870968,94.7870968 266.503226,77.4193548 245.16129,77.4193548 L245.16129,51.6129032 L219.354839,51.6129032 L219.354839,77.4193548 C198.012903,77.4193548 180.645161,94.7870968 180.645161,116.129032 C180.645161,137.470968 198.012903,154.83871 219.354839,154.83871 L245.16129,154.83871 C252.283871,154.83871 258.064516,160.619355 258.064516,167.741935 C258.064516,174.864516 252.283871,180.645161 245.16129,180.645161 Z" id="Path"></path>
            <path d="M51.6129032,606.451613 L438.709677,606.451613 L438.709677,374.193548 L51.6129032,374.193548 L51.6129032,606.451613 Z M77.4193548,400 L412.903226,400 L412.903226,580.645161 L77.4193548,580.645161 L77.4193548,400 Z" id="Shape"></path>
            <path d="M322.258065,490.322581 C318.980645,454.206452 288.567742,425.806452 251.612903,425.806452 C224.954839,425.806452 200.787097,441.070968 188.774194,464.516129 L160.83871,464.516129 L105.393548,547.677419 L126.864516,561.987097 L174.645161,490.322581 L225.354839,490.322581 L273.135484,562 L294.606452,547.690323 L273.574194,516.129032 L329.032258,516.129032 L363.870968,562.580645 L384.516129,547.109677 L341.935484,490.322581 L322.258065,490.322581 Z M256.36129,490.322581 L239.16129,464.516129 L220.283871,464.516129 C228.516129,456.43871 239.677419,451.612903 251.612903,451.612903 C274.296774,451.612903 292.954839,468.490323 296.116129,490.322581 L256.36129,490.322581 Z" id="Shape"></path>
        </g>
    </g>
</svg>